<?xml version="1.0" encoding="UTF-8"?>
<svg version="1.1" xmlns="http://www.w3.org/2000/svg" width="1024" height="1024">
<path d="M0 0 C1.38732493 -0.0018743 2.77464934 -0.00417743 4.16197294 -0.00686532 C7.92794573 -0.01291337 11.69389609 -0.01285811 15.4598726 -0.01167095 C19.53982588 -0.01146515 23.61977229 -0.01700267 27.69972229 -0.02172852 C35.67607371 -0.02999721 43.65241775 -0.03278164 51.6287731 -0.03334089 C58.11993221 -0.03381788 64.6110889 -0.03588167 71.10224724 -0.03904152 C89.55092873 -0.04783793 107.99960443 -0.05246251 126.44828803 -0.05171105 C127.44064458 -0.05167109 128.43300112 -0.05163113 129.45542908 -0.05158997 C130.4490129 -0.05154909 131.44259673 -0.0515082 132.46628916 -0.05146609 C148.55536731 -0.05105995 164.64442202 -0.060624 180.7334934 -0.07472833 C197.29779794 -0.0891334 213.86209108 -0.09599624 230.42640203 -0.09513456 C239.70820859 -0.094804 248.98999058 -0.09748863 258.27179146 -0.10831261 C266.17630089 -0.1174722 274.08077461 -0.11954849 281.98528708 -0.11280318 C286.00829615 -0.10956522 290.03123693 -0.10938105 294.05423927 -0.11815643 C326.99464742 -0.18526306 355.87514865 2.44403994 386.55039978 15.13371277 C387.21313904 15.40328796 387.8758783 15.67286316 388.55870056 15.9506073 C391.81579179 17.30144668 394.77670571 18.75192457 397.67539978 20.75871277 C398.43594666 21.28336121 399.19649353 21.80800964 399.98008728 22.34855652 C400.82829041 22.93765808 401.67649353 23.52675964 402.55039978 24.13371277 C403.54297791 24.79500183 404.53555603 25.45629089 405.55821228 26.13761902 C427.82498127 41.1341538 445.53638804 59.63487223 458.55039978 83.13371277 C458.89844666 83.76116394 459.24649353 84.38861511 459.60508728 85.03507996 C465.20079472 95.28511172 469.18618925 105.89672214 472.807724 116.98405457 C473.51488833 119.14584749 473.51488833 119.14584749 474.49725342 121.18844604 C480.62895136 138.33657146 479.02695506 158.4702458 479.05651069 176.44900227 C479.06614162 180.40229154 479.0924457 184.35547766 479.11651611 188.30870056 C479.16028754 195.92164836 479.18880614 203.53457591 479.2118395 211.14761162 C479.23907552 219.91751319 479.28355507 228.68730466 479.32812285 237.4571321 C479.49223843 270.13561237 479.57468085 302.81419997 479.56993103 335.49308777 C479.56969216 337.3607826 479.56969216 337.3607826 479.56944847 339.26620865 C479.56692188 350.74506635 479.55737061 362.22384896 479.52319622 373.70265961 C479.51153216 377.75671237 479.50317333 381.81076862 479.49515343 385.86483002 C479.48811875 388.58801148 479.47551583 391.31112772 479.46258545 394.0342865 C479.45902277 395.63464804 479.45572391 397.2350102 479.45274353 398.83537292 C479.44758067 399.55594313 479.44241781 400.27651333 479.4370985 401.01891899 C479.38614931 404.6998755 479.38614931 404.6998755 480.55039978 408.13371277 C479.89039978 408.13371277 479.23039978 408.13371277 478.55039978 408.13371277 C478.56514847 408.84098511 478.57989716 409.54825745 478.59509277 410.27696228 C478.73485837 417.04003229 478.86771163 423.80320912 478.99336338 430.56655502 C479.05814481 434.04117387 479.12532664 437.51570697 479.19859314 440.99015808 C480.25809008 491.52885644 473.40940855 532.84893395 441.7361908 573.56242371 C440.61739525 575.04493722 439.58064244 576.58834878 438.55039978 578.13371277 C437.89039978 578.13371277 437.23039978 578.13371277 436.55039978 578.13371277 C436.29129822 578.71765808 436.03219666 579.30160339 435.76524353 579.90324402 C423.34259097 602.71139389 386.17704221 619.7086086 362.76133728 627.00480652 C353.76934609 629.64016631 345.1277352 631.78451739 335.71836853 631.93058777 C335.00293884 631.99761902 334.28750916 632.06465027 333.55039978 632.13371277 C333.22039978 632.79371277 332.89039978 633.45371277 332.55039978 634.13371277 C288.03992346 634.27136892 243.52946989 634.3769341 199.01882226 634.44010475 C193.75110882 634.44760802 188.4833958 634.45537405 183.21568298 634.46330261 C181.64277603 634.46566341 181.64277603 634.46566341 180.03809319 634.46807189 C163.11073532 634.49410338 146.18350106 634.54136823 129.25621625 634.59662955 C111.85729266 634.65295231 94.45843332 634.68611037 77.05942231 634.69824374 C66.34328039 634.70643243 55.62748797 634.73219247 44.91145376 634.78121157 C37.53993151 634.81319185 30.16858708 634.82245431 22.79700067 634.81472103 C18.55858422 634.81091855 14.32077369 634.81629385 10.08246803 634.84894562 C-21.48138572 635.07994909 -51.47251827 630.34439783 -79.57655334 615.14396667 C-81.37203134 614.17555062 -83.18398418 613.23786907 -84.99647522 612.30168152 C-97.62177769 605.51772375 -108.4198223 596.19055117 -118.84803772 586.42668152 C-120.36590456 584.92432597 -120.36590456 584.92432597 -122.44960022 585.13371277 C-122.94460022 583.64871277 -122.94460022 583.64871277 -123.44960022 582.13371277 C-124.74329992 580.43609778 -126.08505259 578.77492126 -127.44960022 577.13371277 C-144.44960022 555.98576544 -144.44960022 555.98576544 -144.44960022 552.13371277 C-145.43960022 551.80371277 -146.42960022 551.47371277 -147.44960022 551.13371277 C-147.44960022 550.14371277 -147.44960022 549.15371277 -147.44960022 548.13371277 C-148.34128672 546.24659009 -149.30953112 544.3949374 -150.32460022 542.57121277 C-150.85827209 541.60054871 -151.39194397 540.62988464 -151.94178772 539.62980652 C-153.34966934 537.07388546 -153.34966934 537.07388546 -155.44960022 535.13371277 C-155.11960022 534.14371277 -154.78960022 533.15371277 -154.44960022 532.13371277 C-155.10960022 531.80371277 -155.76960022 531.47371277 -156.44960022 531.13371277 C-157.08241272 529.06730652 -157.08241272 529.06730652 -157.57460022 526.57121277 C-157.74217834 525.74492371 -157.90975647 524.91863464 -158.08241272 524.06730652 C-158.26417053 523.11017761 -158.26417053 523.11017761 -158.44960022 522.13371277 C-159.43960022 522.13371277 -160.42960022 522.13371277 -161.44960022 522.13371277 C-162.57460022 517.38371277 -162.57460022 517.38371277 -161.44960022 515.13371277 C-161.69626418 511.57364056 -161.69626418 511.57364056 -162.44960022 508.13371277 C-163.10960022 507.80371277 -163.76960022 507.47371277 -164.44960022 507.13371277 C-164.91612318 504.7370654 -165.25090511 502.4298779 -165.51210022 500.00871277 C-165.74606506 498.05578308 -165.74606506 498.05578308 -165.98475647 496.06340027 C-167.11214169 484.8742061 -167.5980247 473.73489566 -167.57658386 462.49240112 C-167.57814385 461.20596594 -167.57970384 459.91953076 -167.58131111 458.59411269 C-167.58543544 455.07124913 -167.5834454 451.54841311 -167.58032489 448.02554953 C-167.57804246 444.2074355 -167.58156447 440.38932589 -167.58430481 436.57121277 C-167.58873167 429.10955553 -167.5877997 421.64790839 -167.58489217 414.18625077 C-167.58262546 408.11553813 -167.58233109 402.04482831 -167.58341599 395.97411537 C-167.58356922 395.10710594 -167.58372245 394.24009651 -167.58388033 393.34681407 C-167.58420008 391.58496524 -167.5845243 389.82311642 -167.58485292 388.06126759 C-167.58769881 371.57207813 -167.58443494 355.08289424 -167.57905255 338.59370569 C-167.5745877 324.47919028 -167.57535955 310.36468311 -167.57997131 296.25016785 C-167.58533693 279.8209877 -167.58742171 263.39181243 -167.58435905 246.96263152 C-167.58404054 245.2066735 -167.58372616 243.45071548 -167.58341599 241.69475746 C-167.58326171 240.83102036 -167.58310743 239.96728326 -167.58294848 239.07737231 C-167.58208911 233.02327719 -167.58353372 226.9691852 -167.58589554 220.91509056 C-167.58871597 213.5235749 -167.58790843 206.13206984 -167.58261479 198.74055537 C-167.58000747 194.97729509 -167.57892161 191.21405241 -167.58226395 187.45079231 C-167.61435659 148.02838921 -167.61435659 148.02838921 -165.26210022 133.75871277 C-165.07526672 132.60725769 -165.07526672 132.60725769 -164.88465881 131.43254089 C-162.69859174 118.95657792 -159.08638053 106.43870553 -153.33241272 95.12980652 C-152.24736161 93.04020561 -152.24736161 93.04020561 -152.44960022 90.13371277 C-151.48429868 89.10017857 -150.47935848 88.10304137 -149.44960022 87.13371277 C-148.66431174 85.93162501 -147.92323851 84.69977243 -147.22303772 83.44621277 C-146.83116272 82.74754089 -146.43928772 82.04886902 -146.03553772 81.32902527 C-145.43612366 80.24234558 -145.43612366 80.24234558 -144.82460022 79.13371277 C-144.21358459 78.04703308 -144.21358459 78.04703308 -143.59022522 76.93840027 C-141.95440584 74.00259198 -140.51619111 71.33348545 -139.44960022 68.13371277 C-137.80522714 66.44504681 -136.13581519 64.78059911 -134.44960022 63.13371277 C-133.13800645 61.52475361 -131.84690675 59.89891516 -130.57460022 58.25871277 C-107.13723104 29.40972512 -75.633442 10.34498874 -39.26210022 2.82121277 C-38.12478455 2.58205139 -38.12478455 2.58205139 -36.9644928 2.33805847 C-24.82609087 0.01002264 -12.31635777 -0.01522744 0 0 Z M-160.44960022 519.13371277 C-159.44960022 521.13371277 -159.44960022 521.13371277 -159.44960022 521.13371277 Z " fill="#345BCD" transform="translate(356.44960021972656,181.8662872314453)"/>
<path d="M0 0 C2.71874603 3.26425494 4.9816488 6.50030356 7.03125 10.21875 C7.58796387 11.22204346 8.14467773 12.22533691 8.71826172 13.2590332 C9.30623535 14.32855225 9.89420898 15.39807129 10.5 16.5 C11.76227865 18.77515151 13.02531053 21.04988527 14.2890625 23.32421875 C14.9171582 24.45649902 15.54525391 25.5887793 16.19238281 26.75537109 C18.72052253 31.29332042 21.29125414 35.80603879 23.875 40.3125 C24.35420898 41.149021 24.83341797 41.98554199 25.32714844 42.84741211 C26.33793327 44.61132749 27.34900946 46.37507594 28.36035156 48.13867188 C32.17081262 54.78825549 35.96952395 61.44457028 39.77001953 68.09985352 C42.94997381 73.66760926 46.13251519 79.2338264 49.32562256 84.79405212 C50.78431217 87.33446775 52.24139555 89.87580293 53.69836426 92.41720581 C54.38986569 93.62235676 55.08214495 94.8270618 55.77526855 96.03128052 C56.74281519 97.71240612 57.70739258 99.39523954 58.671875 101.078125 C59.2194043 102.03106445 59.76693359 102.98400391 60.33105469 103.96582031 C62.3239621 107.5889703 64.15073551 111.30147102 66 115 C53.13 115 40.26 115 27 115 C27 173.08 27 231.16 27 291 C45.19125 290.896875 63.3825 290.79375 82.125 290.6875 C87.86535645 290.66260498 93.60571289 290.63770996 99.52001953 290.61206055 C104.67321761 290.57548891 104.67321761 290.57548891 109.8263855 290.5349884 C112.11859004 290.51885655 114.41084019 290.50855621 116.70309448 290.50288391 C120.17877527 290.49314452 123.65386123 290.46480509 127.12939453 290.43237305 C128.6568439 290.43451199 128.6568439 290.43451199 130.21515083 290.43669415 C135.53884695 290.36575707 139.4341426 290.05942144 144 287 C147.64468762 281.94872717 147.53760427 276.62939478 147.6875 270.625 C147.72166016 269.69816406 147.75582031 268.77132813 147.79101562 267.81640625 C147.87299552 265.54439188 147.94230494 263.27273896 148 261 C146.56333984 261.03927612 146.56333984 261.03927612 145.09765625 261.0793457 C141.51212326 261.17049127 137.92669058 261.22747921 134.34033203 261.2746582 C132.79425788 261.29965732 131.24830018 261.33366902 129.70263672 261.37719727 C114.20039579 261.80253312 114.20039579 261.80253312 108.43310547 257.36962891 C102.72033311 251.90989246 99.97235453 247.00992789 99.73257446 238.96646118 C99.71465585 236.94075879 99.70770919 234.91494103 99.70947266 232.88916016 C99.70275543 231.77947372 99.69603821 230.66978729 99.68911743 229.526474 C99.67014435 225.86395776 99.66621365 222.20162481 99.6640625 218.5390625 C99.65763451 215.98847376 99.65090615 213.43788577 99.64389038 210.88729858 C99.63191962 205.54268385 99.62812362 200.19813719 99.62939453 194.85351562 C99.63059563 188.69019932 99.60949433 182.52723337 99.5779072 176.36400568 C99.54852815 170.41809995 99.54142044 164.47230049 99.54261398 158.5263176 C99.54025665 156.00419051 99.53142574 153.48206072 99.51594925 150.95998001 C99.49631225 147.42956867 99.50211915 143.90005529 99.51416016 140.36962891 C99.50292114 139.33248245 99.49168213 138.295336 99.48010254 137.22676086 C99.53982961 130.32097051 100.58123477 124.58981498 105.48272133 119.44309425 C109.54504985 115.89295934 112.66581269 114.87924216 117.93852234 114.84609985 C119.4671566 114.83319916 119.4671566 114.83319916 121.02667236 114.82003784 C122.14410828 114.81577789 123.26154419 114.81151794 124.4128418 114.80712891 C125.59036514 114.79895142 126.76788849 114.79077393 127.98109436 114.78234863 C131.88712206 114.75748848 135.79314214 114.74082213 139.69921875 114.7265625 C141.04592203 114.72120103 142.39262524 114.71582352 143.73932838 114.71043015 C149.34366649 114.68880432 154.94800176 114.6700699 160.55237103 114.65880775 C168.57241496 114.64258312 176.59197332 114.60943894 184.61183423 114.55240691 C190.25698362 114.51363761 195.90200353 114.49416673 201.54728252 114.48888719 C204.91572691 114.48524256 208.28365303 114.47331816 211.65195274 114.44078445 C215.41507185 114.40916701 219.17696847 114.40909213 222.94018555 114.41650391 C224.04750031 114.40009857 225.15481506 114.38369324 226.29568481 114.36679077 C233.0827492 114.42143526 237.81968594 115.43456662 243 120 C246.54397976 124.5435638 248.11838674 128.02588882 248.14717102 133.748703 C248.15790398 135.21423111 248.15790398 135.21423111 248.16885376 136.70936584 C248.17154266 137.78004807 248.17423157 138.85073029 248.17700195 139.95385742 C248.18357315 141.08261292 248.19014435 142.21136841 248.19691467 143.37432861 C248.21666062 147.11804264 248.2283136 150.86171652 248.23828125 154.60546875 C248.24235678 155.88354212 248.2464323 157.16161549 248.25063133 158.47841835 C248.26934608 164.54607408 248.28390993 170.61370547 248.2922433 176.68138236 C248.30200612 183.673608 248.32830163 190.66551627 248.36874419 197.65763015 C248.4026137 203.72260219 248.41439418 209.78744147 248.41844749 215.85250282 C248.42331748 218.42766788 248.43494307 221.00282945 248.45348549 223.57793236 C248.4778447 227.18526792 248.47691709 230.79177721 248.4699707 234.39916992 C248.48918579 235.99001152 248.48918579 235.99001152 248.50878906 237.61299133 C248.45296119 245.5815187 246.85095922 250.94540083 241.375 256.8125 C233.93963092 262.33248846 224.74538978 262.40756692 215.875 262.1875 C214.823125 262.17396484 213.77125 262.16042969 212.6875 262.14648438 C210.12444046 262.11153356 207.56251087 262.06247682 205 262 C205.02094727 263.25433838 205.04189453 264.50867676 205.06347656 265.80102539 C205.13674618 270.52551522 205.18211095 275.24995661 205.21972656 279.97485352 C205.23964639 282.00651539 205.26679238 284.03812144 205.30175781 286.06958008 C205.65038321 306.86918645 203.20209725 324.04250757 188.28515625 339.78125 C170.30861493 357.2353961 147.89956964 357.6106594 124.23709559 357.40557575 C120.80723145 357.38021835 117.37734638 357.37819353 113.94740295 357.37347412 C107.48088077 357.36114349 101.01463577 357.32845953 94.54823452 357.28807616 C87.17438035 357.24304562 79.8005115 357.22129359 72.42655361 357.20129442 C57.28419026 357.15971528 42.14218597 357.08649066 27 357 C27 366.57 27 376.14 27 386 C29.97 386.99 32.94 387.98 36 389 C53.43705863 397.96232308 66.40245821 413.38323609 72.63720703 431.89160156 C78.66627416 451.05286478 76.95864407 471.94866731 68 490 C55.9824075 510.37041421 38.58044279 522.65987924 16.03515625 528.80859375 C-3.79881236 533.03168545 -25.41344289 529.17458011 -42.75 518.8125 C-60.2435764 506.80864953 -72.70824195 490.1899037 -76.875 469.0625 C-80.3018047 449.31315821 -77.00408194 429.10156054 -65.63671875 412.37890625 C-57.19221 400.68983217 -45.35931305 389.58982826 -31 386 C-31 376.43 -31 366.86 -31 357 C-34.91488281 357.02094727 -38.82976562 357.04189453 -42.86328125 357.06347656 C-55.8431446 357.12995481 -68.82300561 357.17422286 -81.80299377 357.20724869 C-89.6675795 357.2277948 -97.5320029 357.25576137 -105.39648438 357.30175781 C-112.25840214 357.34187119 -119.12020223 357.36749045 -125.982234 357.37635398 C-129.60912347 357.38152773 -133.23567659 357.39351731 -136.86245728 357.42292023 C-160.68523958 357.60832599 -181.59113065 356.79590355 -199.7890625 339.3046875 C-212.84082904 325.69948916 -217.36795831 310.95601493 -217.1953125 292.4296875 C-217.1924826 291.26744659 -217.18965271 290.10520569 -217.18673706 288.90774536 C-217.17562659 285.23005463 -217.150539 281.55261595 -217.125 277.875 C-217.1149584 275.36719104 -217.10583462 272.85937823 -217.09765625 270.3515625 C-217.07571722 264.23429037 -217.04233165 258.1171632 -217 252 C-217.93481201 251.69980957 -218.86962402 251.39961914 -219.83276367 251.09033203 C-235.12091058 245.82733472 -246.09111724 232.89174657 -253.5703125 219.10546875 C-262.03719744 201.38585027 -263.92604282 180.72259288 -257.73632812 162.01025391 C-250.74452307 142.92188426 -238.29473838 127.93502001 -219.92871094 118.89306641 C-202.77397311 110.94977135 -182.60495552 110.3414121 -164.54296875 115.67578125 C-144.71816579 123.08549261 -130.19354606 137.13451068 -121 156 C-113.2064991 175.52880138 -113.80015824 197.19714246 -121.4375 216.6640625 C-128.78084018 232.86883723 -142.45235102 245.46236155 -159 252 C-160.32 252 -161.64 252 -163 252 C-162.93091287 256.18148877 -162.84284758 260.36202754 -162.73754883 264.54272461 C-162.70439443 265.96351202 -162.67633308 267.38442813 -162.65356445 268.80541992 C-162.61984153 270.8539082 -162.56752255 272.9012272 -162.51171875 274.94921875 C-162.48553467 276.17987061 -162.45935059 277.41052246 -162.43237305 278.6784668 C-161.9519612 282.3690389 -161.40521597 284.16397148 -159 287 C-152.72912213 290.54004518 -146.9076402 290.44126281 -139.82250977 290.43237305 C-137.97757761 290.44778373 -137.97757761 290.44778373 -136.09537411 290.46350574 C-133.45586012 290.48333463 -130.81699237 290.49795218 -128.17747498 290.50288391 C-124.39349484 290.51127083 -120.60992979 290.53416398 -116.8260498 290.56213379 C-107.73828809 290.62001041 -98.65037747 290.65220439 -89.5625 290.6875 C-59.0890625 290.8421875 -59.0890625 290.8421875 -28 291 C-28 232.92 -28 174.84 -28 115 C-39.88 115 -51.76 115 -64 115 C-62.65691735 110.97075204 -61.71546863 108.19301242 -59.671875 104.69921875 C-59.2092627 103.9002417 -58.74665039 103.10126465 -58.27001953 102.27807617 C-57.76841309 101.42318604 -57.26680664 100.5682959 -56.75 99.6875 C-55.65772611 97.80273662 -54.56662889 95.91729096 -53.4765625 94.03125 C-52.90583008 93.04511719 -52.33509766 92.05898438 -51.74707031 91.04296875 C-48.82407572 85.9518278 -45.97894847 80.81755452 -43.125 75.6875 C-38.47078153 67.33770082 -33.71980317 59.0530807 -28.875 50.8125 C-23.83857299 42.24483337 -19.00214391 33.5908247 -14.28369141 24.84448242 C-9.73342335 16.43597588 -4.91525109 8.19933478 0 0 Z " fill="#FEFEFE" transform="translate(512,214)"/>
<path d="M0 0 C0.66 0 1.32 0 2 0 C1.67 116.82 1.34 233.64 1 354 C0.67 354 0.34 354 0 354 C-0.06058594 353.15695312 -0.12117187 352.31390625 -0.18359375 351.4453125 C-0.26738281 350.34960938 -0.35117188 349.25390625 -0.4375 348.125 C-0.51871094 347.03445313 -0.59992188 345.94390625 -0.68359375 344.8203125 C-0.83001703 342.05271029 -0.83001703 342.05271029 -2 340 C-2.09498007 338.2970348 -2.12554854 336.59032401 -2.12584114 334.88471222 C-2.12844889 333.7945611 -2.13105664 332.70440997 -2.13374341 331.58122396 C-2.13151268 330.37367909 -2.12928196 329.16613421 -2.12698364 327.92199707 C-2.12854363 326.64666941 -2.13010362 325.37134175 -2.13171089 324.0573678 C-2.13590377 320.50513296 -2.1338136 316.95292481 -2.13072467 313.40068984 C-2.12847026 309.57348556 -2.13195064 305.746286 -2.13470459 301.91908264 C-2.13916287 294.41219559 -2.13818497 286.90531851 -2.13529195 279.39843106 C-2.13303546 273.29022213 -2.13272648 267.18201599 -2.13381577 261.07380676 C-2.133969 260.20503596 -2.13412223 259.33626517 -2.13428011 258.44116798 C-2.13459984 256.67617921 -2.13492405 254.91119044 -2.1352527 253.14620167 C-2.13810835 236.57027513 -2.13482055 219.99435411 -2.12945233 203.41842848 C-2.1249968 189.22247167 -2.1257497 175.02652306 -2.13037109 160.83056641 C-2.13573712 144.33958727 -2.13782039 127.848613 -2.13475883 111.35763311 C-2.1344403 109.59417057 -2.13412593 107.83070803 -2.13381577 106.06724548 C-2.13366149 105.19967354 -2.13350721 104.3321016 -2.13334826 103.4382396 C-2.13248824 97.35173394 -2.13393513 91.26523138 -2.13629532 85.1787262 C-2.13911662 77.73931828 -2.13830684 70.29992089 -2.13301457 62.86051416 C-2.13040683 59.07101583 -2.12932198 55.28153498 -2.13266373 51.49203682 C-2.16277606 14.08685011 -2.16277606 14.08685011 0 0 Z " fill="#3B5AC1" transform="translate(191,318)"/>
<path d="M0 0 C0.66 0.33 1.32 0.66 2 1 C2.16693369 23.93646042 2.32666112 46.87296696 2.48177338 69.80951023 C2.4999206 72.48827985 2.51816853 75.16704877 2.53643799 77.84581757 C2.79199026 115.3787871 3.04752042 152.91130932 3.03125 190.4453125 C3.03074142 191.68788063 3.03023285 192.93044876 3.02970886 194.21067047 C3.02350842 205.66139087 3.00612964 217.11204411 2.97194672 228.56271553 C2.96043033 232.61838391 2.95227118 236.67405532 2.94456482 240.72973251 C2.9377152 243.45348863 2.9251707 246.17717656 2.91223145 248.90090942 C2.90865586 250.50115907 2.90534188 252.10140933 2.90234375 253.70166016 C2.89717995 254.42222343 2.89201614 255.14278671 2.88669586 255.88518524 C2.83574859 259.56615244 2.83574859 259.56615244 4 263 C3.34 263 2.68 263 2 263 C2.01474869 263.70727234 2.02949738 264.41454468 2.04469299 265.14324951 C2.18445859 271.90631952 2.31731185 278.66949636 2.4429636 285.43284225 C2.50774503 288.90746111 2.57492686 292.3819942 2.64819336 295.85644531 C3.31394561 327.61326383 3.28153626 358.47229885 -10 388 C-10.66 388 -11.32 388 -12 388 C-11.56396518 386.54422197 -11.12772196 385.08850636 -10.69140625 383.6328125 C-10.41699707 382.71661133 -10.14258789 381.80041016 -9.85986328 380.85644531 C-9.31836166 379.05758985 -8.77300683 377.25988543 -8.22216797 375.46386719 C-7.44818951 372.93783305 -6.6920519 370.40689793 -5.9375 367.875 C-5.68162109 367.05257813 -5.42574219 366.23015625 -5.16210938 365.3828125 C-1.38827821 352.57701009 -0.70146821 339.40315562 -0.7215271 326.13024902 C-0.71650722 324.70988003 -0.71062657 323.28951388 -0.70397437 321.86915159 C-0.68836473 318.01734942 -0.68475436 314.16562053 -0.68332577 310.31379056 C-0.67959795 306.14086971 -0.66442612 301.96798753 -0.65071106 297.79508972 C-0.6285396 290.58223383 -0.61346582 283.36939189 -0.60334396 276.1565094 C-0.58869937 265.72815994 -0.5631467 255.2998591 -0.53501268 244.87153834 C-0.48964918 227.94838875 -0.45299143 211.02523212 -0.421875 194.10205078 C-0.39164654 177.6720252 -0.35727665 161.2420168 -0.31738281 144.81201172 C-0.31492126 143.7976498 -0.31245972 142.78328789 -0.30992357 141.73818773 C-0.29754814 136.64894942 -0.28509177 131.55971131 -0.27259517 126.47047329 C-0.16918388 84.3136728 -0.07992925 42.15685114 0 0 Z " fill="#3152BF" transform="translate(833,327)"/>
<path d="M0 0 C11.88 0 23.76 0 36 0 C36 58.08 36 116.16 36 176 C15.705 176.0825 -4.59 176.165 -25.5 176.25 C-31.90083984 176.28641602 -38.30167969 176.32283203 -44.89648438 176.36035156 C-52.73144531 176.37841797 -52.73144531 176.37841797 -56.4029541 176.3817749 C-59.62963241 176.3895121 -62.85587198 176.41204182 -66.08243322 176.43926644 C-69.29127153 176.46071181 -72.50008697 176.45535932 -75.70898438 176.45410156 C-77.40832249 176.47569021 -77.40832249 176.47569021 -79.14199066 176.497715 C-85.89368235 176.46235851 -90.25422671 175.62305837 -96 172 C-99.30075154 168.15352854 -99.35635527 164.91449643 -99.29296875 159.94921875 C-99.28872391 159.29041214 -99.28447906 158.63160553 -99.28010559 157.95283508 C-99.26341196 155.86396115 -99.22578058 153.77607861 -99.1875 151.6875 C-99.17244097 150.26498797 -99.15875469 148.8424607 -99.14648438 147.41992188 C-99.11354003 143.94629649 -99.06182408 140.47324513 -99 137 C-97.02 136.67 -95.04 136.34 -93 136 C-93.495 136.99 -93.495 136.99 -94 138 C-95.32 138 -96.64 138 -98 138 C-97.91867005 142.18826791 -97.80586305 146.37512793 -97.6875 150.5625 C-97.66494141 151.74392578 -97.64238281 152.92535156 -97.61914062 154.14257812 C-97.37063629 162.99341743 -97.37063629 162.99341743 -94 171 C-90.91934883 172.99914611 -88.44169312 173.25642696 -84.8114624 173.2784729 C-83.24144281 173.29520019 -83.24144281 173.29520019 -81.63970566 173.3122654 C-79.9187789 173.31552361 -79.9187789 173.31552361 -78.16308594 173.31884766 C-76.31869619 173.33407754 -76.31869619 173.33407754 -74.43704605 173.3496151 C-71.11396763 173.37518814 -67.79106273 173.39225935 -64.46792603 173.40519714 C-61.34852057 173.41913913 -58.22920736 173.44377505 -55.10986328 173.4675293 C-45.98997696 173.53075552 -36.86997828 173.5768319 -27.75 173.625 C2.81625 173.810625 2.81625 173.810625 34 174 C34 117.24 34 60.48 34 2 C22.45 2 10.9 2 -1 2 C-0.67 1.34 -0.34 0.68 0 0 Z " fill="#0829BA" transform="translate(448,329)"/>
<path d="M0 0 C0.66 0 1.32 0 2 0 C1.67 60.06 1.34 120.12 1 182 C0.67 182 0.34 182 0 182 C-0.15399123 159.30376737 -0.30202191 136.60750283 -0.4429636 113.91118526 C-0.50854459 103.37281711 -0.57607344 92.83446818 -0.64819336 82.29614258 C-0.71105059 73.11057951 -0.77024747 63.92500137 -0.82505554 54.73938662 C-0.8542015 49.87603402 -0.88517588 45.01270862 -0.92053413 40.1493969 C-0.95376828 35.57028627 -0.98210165 30.99117126 -1.00670624 26.41200638 C-1.01658605 24.73303764 -1.02824334 23.05407825 -1.04183006 21.37513542 C-1.06014612 19.07857519 -1.07199921 16.78206661 -1.08229065 14.48545837 C-1.09058679 13.20140075 -1.09888292 11.91734312 -1.10743046 10.59437466 C-0.99977768 6.9925616 -0.57998987 3.55379836 0 0 Z " fill="#3053C5" transform="translate(191,318)"/>
<path d="M0 0 C2.98597272 2.79165779 5.09730226 5.55819317 7.1875 9.0625 C10.44459942 14.32614223 14.15413643 18.99329807 18.1796875 23.6875 C20 26 20 26 21 29 C21.66 29 22.32 29 23 29 C24.41015625 30.46875 24.41015625 30.46875 26.0625 32.5 C30.60032377 37.8336008 35.58578201 43.05674913 41.7109375 46.54296875 C44 48 44 48 45 51 C48.51190809 52.22969878 48.51190809 52.22969878 52 53 C52 53.99 52 54.98 52 56 C53.2065625 56.433125 53.2065625 56.433125 54.4375 56.875 C57 58 57 58 58 60 C46.17215617 57.67147594 35.28286056 45.32388331 26.77734375 37.43359375 C25.12112189 35.79072689 25.12112189 35.79072689 23 36 C22.67 35.01 22.34 34.02 22 33 C20.7063003 31.30238501 19.36454763 29.64120849 18 28 C1 6.85205267 1 6.85205267 1 3 C0.01 2.67 -0.98 2.34 -2 2 C-1.34 2 -0.68 2 0 2 C0 1.34 0 0.68 0 0 Z " fill="#3555C0" transform="translate(211,731)"/>
<path d="M0 0 C19.68244286 8.60555237 33.41940866 39.66939161 41.421875 58.3125 C44.25407963 65.60639687 44.25407963 65.60639687 43 70 C42.30777344 68.27330078 42.30777344 68.27330078 41.6015625 66.51171875 C31.90817658 42.69382913 20.10935456 21.07689351 1.1875 3.296875 C0 2 0 2 0 0 Z " fill="#3556C0" transform="translate(783,226)"/>
<path d="M0 0 C0.66 0.33 1.32 0.66 2 1 C1.03513672 1.98613281 1.03513672 1.98613281 0.05078125 2.9921875 C-13.90418087 17.68371681 -24.11176682 33.8346228 -33 52 C-33.68707555 49.50935112 -34 47.62113708 -34 45 C-33.03469846 43.9664658 -32.02975826 42.9693286 -31 42 C-30.21471152 40.79791224 -29.47363829 39.56605966 -28.7734375 38.3125 C-28.3815625 37.61382812 -27.9896875 36.91515625 -27.5859375 36.1953125 C-27.18632812 35.47085938 -26.78671875 34.74640625 -26.375 34 C-25.96765625 33.27554688 -25.5603125 32.55109375 -25.140625 31.8046875 C-23.50480562 28.86887921 -22.06659089 26.19977268 -21 23 C-19.35592912 21.31103982 -17.68598837 19.64711832 -16 18 C-14.51953316 16.22657859 -13.06117508 14.43447691 -11.625 12.625 C-7.99197044 8.12783276 -4.20642595 3.96296722 0 0 Z " fill="#3455BF" transform="translate(238,227)"/>
<path d="M0 0 C-1.39798828 0.70962891 -1.39798828 0.70962891 -2.82421875 1.43359375 C-11.72660464 6.02348243 -19.92639738 11.06446606 -28 17 C-29.39025391 18.01707031 -29.39025391 18.01707031 -30.80859375 19.0546875 C-33.99476203 21.41934249 -33.99476203 21.41934249 -37 24 C-37 24.66 -37 25.32 -37 26 C-38.98 26.99 -40.96 27.98 -43 29 C-42.15758782 22.94006723 -36.55180579 19.54807425 -32 16 C-6.6070122 -2.72795492 -6.6070122 -2.72795492 0 0 Z " fill="#3556C2" transform="translate(284,198)"/>
<path d="M0 0 C4.60062489 0.54378868 7.90558608 2.54936726 11.6875 5.0625 C12.29819336 5.46299561 12.90888672 5.86349121 13.53808594 6.27612305 C28.64208207 16.31842116 28.64208207 16.31842116 31 22 C29.4840625 20.824375 29.4840625 20.824375 27.9375 19.625 C19.96199204 13.63981488 11.56125851 8.14885994 3.0625 2.9375 C2.051875 2.298125 1.04125 1.65875 0 1 C0 0.67 0 0.34 0 0 Z " fill="#3456C1" transform="translate(749,202)"/>
<path d="M0 0 C0.33 0.99 0.66 1.98 1 3 C-0.36228642 5.20743591 -1.72250684 7.15756888 -3.3125 9.1875 C-3.72951172 9.74630859 -4.14652344 10.30511719 -4.57617188 10.88085938 C-5.66150381 12.29854175 -6.82590946 13.65490516 -8 15 C-8.66 15 -9.32 15 -10 15 C-10.20625 15.53625 -10.4125 16.0725 -10.625 16.625 C-12.57996944 20.0017654 -15.18223695 22.30474839 -18 25 C-18.99 24.67 -19.98 24.34 -21 24 C-20.23816406 23.27296875 -19.47632813 22.5459375 -18.69140625 21.796875 C-11.66953831 14.99401269 -5.62193549 8.00699903 0 0 Z " fill="#3555BF" transform="translate(803,745)"/>
<path d="M0 0 C-8.84489289 4.05390924 -16.29693093 5.32105743 -26 5 C-21.80705067 2.7545343 -17.61509117 1.83357049 -13 0.8125 C-12.19304688 0.62236328 -11.38609375 0.43222656 -10.5546875 0.23632812 C-9.77351562 0.06166016 -8.99234375 -0.11300781 -8.1875 -0.29296875 C-7.12595703 -0.53309692 -7.12595703 -0.53309692 -6.04296875 -0.77807617 C-3.77757441 -1.02416167 -2.16111753 -0.67656334 0 0 Z " fill="#3454C1" transform="translate(718,808)"/>
<path d="M0 0 C1.89562563 3.79125126 2.79391625 6.88515578 3.6875 11 C3.95949219 12.216875 4.23148438 13.43375 4.51171875 14.6875 C4.95869108 17.71976031 4.87199162 19.16766633 4 22 C4.33 22.66 4.66 23.32 5 24 C4.01 24 3.02 24 2 24 C0.875 19.25 0.875 19.25 2 17 C1.75333604 13.43992779 1.75333604 13.43992779 1 10 C0.34 9.67 -0.32 9.34 -1 9 C-0.67 6.03 -0.34 3.06 0 0 Z " fill="#3557C1" transform="translate(193,680)"/>
<path d="M0 0 C1 2 1 2 0.3125 4.5 C-1.23876699 7.45479427 -2.10852951 7.56213627 -5 9 C-6.9499629 10.70995544 -6.9499629 10.70995544 -8.75 12.625 C-9.36359375 13.25664062 -9.9771875 13.88828125 -10.609375 14.5390625 C-11.06828125 15.02117187 -11.5271875 15.50328125 -12 16 C-12.66 15.67 -13.32 15.34 -14 15 C-13.24074219 14.25234375 -12.48148437 13.5046875 -11.69921875 12.734375 C-10.69517864 11.73971844 -9.69127983 10.74491923 -8.6875 9.75 C-8.18798828 9.25886719 -7.68847656 8.76773437 -7.17382812 8.26171875 C-4.54328661 5.64859804 -2.12314838 3.04342089 0 0 Z " fill="#1127B8" transform="translate(384,441)"/>
<path d="M0 0 C-2.8762349 2.3223428 -5.63780422 3.86565842 -9.0625 5.25 C-9.91972656 5.60578125 -10.77695312 5.9615625 -11.66015625 6.328125 C-14 7 -14 7 -17 6 C-12.3149827 1.90060986 -6.26086269 -0.58695588 0 0 Z " fill="#3356C2" transform="translate(302,190)"/>
<path d="M0 0 C-2.20151792 1.965641 -3.49725434 2.94943764 -6.47363281 3.2487793 C-7.37436523 3.19117432 -8.27509766 3.13356934 -9.203125 3.07421875 C-10.67265625 2.99204102 -10.67265625 2.99204102 -12.171875 2.90820312 C-13.18765625 2.83537109 -14.2034375 2.76253906 -15.25 2.6875 C-16.28125 2.62626953 -17.3125 2.56503906 -18.375 2.50195312 C-20.91791028 2.3489076 -23.45895864 2.18109518 -26 2 C-26 1.67 -26 1.34 -26 1 C-22.9792807 0.83100871 -19.95845177 0.66473871 -16.9375 0.5 C-16.08994141 0.45230469 -15.24238281 0.40460937 -14.36914062 0.35546875 C-9.57055312 0.09608564 -4.80550212 -0.05216285 0 0 Z " fill="#0918B2" transform="translate(527,743)"/>
<path d="M0 0 C-1 3 -1 3 -2.890625 4.16796875 C-10.72189969 7.55201294 -10.72189969 7.55201294 -15 7 C-11.19791273 3.69383716 -5.16418515 0 0 0 Z " fill="#3354C1" transform="translate(738,799)"/>
<path d="M0 0 C2.79163712 2.40768703 3.89717557 4.76146616 5.1875 8.1875 C5.53167969 9.08855469 5.87585938 9.98960937 6.23046875 10.91796875 C6.48441406 11.60503906 6.73835937 12.29210937 7 13 C4 12 4 12 2.83203125 10.29296875 C2.49558594 9.59816406 2.15914062 8.90335938 1.8125 8.1875 C1.46832031 7.50042969 1.12414062 6.81335938 0.76953125 6.10546875 C0 4 0 4 0 0 Z " fill="#3555BF" transform="translate(204,717)"/>
<path d="M0 0 C0 3 0 3 -1.96875 5.04296875 C-2.8040625 5.75066406 -3.639375 6.45835937 -4.5 7.1875 C-5.3353125 7.90292969 -6.170625 8.61835937 -7.03125 9.35546875 C-7.6809375 9.89816406 -8.330625 10.44085937 -9 11 C-9.99 10.67 -10.98 10.34 -12 10 C-8.04 6.7 -4.08 3.4 0 0 Z " fill="#3454BF" transform="translate(780,771)"/>
<path d="M0 0 C0.66 0 1.32 0 2 0 C0.58707905 4.8274799 -1.42974154 8.7162359 -4 13 C-4.66 13 -5.32 13 -6 13 C-4.31326082 8.50202887 -2.18326108 4.27113698 0 0 Z " fill="#3656BF" transform="translate(819,718)"/>
<path d="M0 0 C3.7910119 1.44950455 7.3874638 3.15172566 11 5 C10.67 5.66 10.34 6.32 10 7 C6.4124787 5.66749209 3.1635377 4.169283 0 2 C0 1.34 0 0.68 0 0 Z " fill="#3554C0" transform="translate(270,791)"/>
<path d="M0 0 C2.36239332 3.61307214 1.80583502 5.88128766 1 10 C1.33 10.66 1.66 11.32 2 12 C1.01 12 0.02 12 -1 12 C-2.125 7.25 -2.125 7.25 -1 5 C-0.64386903 3.33805547 -0.30791692 1.671549 0 0 Z " fill="#3F5EC3" transform="translate(196,692)"/>
<path d="M0 0 C0.66 1.32 1.32 2.64 2 4 C-2.75 8.875 -2.75 8.875 -5 10 C-3.84414715 6.08788267 -2.64465038 3.1254959 0 0 Z " fill="#1830BC" transform="translate(390,431)"/>
<path d="M0 0 C0 0.66 0 1.32 0 2 C-2.8125 3.5625 -2.8125 3.5625 -6 5 C-6.99 4.67 -7.98 4.34 -9 4 C-2.25 0 -2.25 0 0 0 Z " fill="#3253C1" transform="translate(749,794)"/>
<path d="M0 0 C0.33 0.99 0.66 1.98 1 3 C0.00390625 4.82421875 0.00390625 4.82421875 -1.4375 6.6875 C-1.91058594 7.31011719 -2.38367188 7.93273437 -2.87109375 8.57421875 C-3.24363281 9.04472656 -3.61617187 9.51523437 -4 10 C-4.66 9.67 -5.32 9.34 -6 9 C-4.02 6.03 -2.04 3.06 0 0 Z " fill="#3050BC" transform="translate(811,733)"/>
<path d="M0 0 C-2.39223697 2.39223697 -3.67759676 2.6758631 -7 3 C-7.99 2.34 -8.98 1.68 -10 1 C-6.78548731 -0.60725635 -3.56387464 -0.05748185 0 0 Z " fill="#2640C0" transform="translate(305,328)"/>
<path d="M0 0 C0.99 0.33 1.98 0.66 3 1 C2.67 1.66 2.34 2.32 2 3 C1.01 2.34 0.02 1.68 -1 1 C-0.67 0.67 -0.34 0.34 0 0 Z " fill="#4864C3" transform="translate(273,796)"/>
<path d="M0 0 C4 1 4 1 4 1 Z " fill="#4765C6" transform="translate(692,815)"/>
<path d="M0 0 C0 3 0 3 0 3 Z " fill="#4964C1" transform="translate(189,320)"/>
<path d="M0 0 C1.485 0.99 1.485 0.99 3 2 C2.01 2 1.02 2 0 2 C0 1.34 0 0.68 0 0 Z " fill="#4865C5" transform="translate(308,184)"/>
<path d="M0 0 C3 1 3 1 3 1 Z " fill="#4865C7" transform="translate(699,814)"/>
<path d="M0 0 C3 1 3 1 3 1 Z " fill="#4764C4" transform="translate(312,812)"/>
<path d="M0 0 C2 1 2 1 2 1 Z " fill="#4765C5" transform="translate(296,807)"/>
<path d="M0 0 C2 1 2 1 2 1 Z " fill="#4865C4" transform="translate(224,757)"/>
<path d="" fill="#4864C2" transform="translate(0,0)"/>
<path d="" fill="#4964C3" transform="translate(0,0)"/>
<path d="" fill="#4865C5" transform="translate(0,0)"/>
<path d="M0 0 C2 1 2 1 2 1 Z " fill="#4863C4" transform="translate(202,274)"/>
<path d="" fill="#4866C2" transform="translate(0,0)"/>
<path d="" fill="#4865C3" transform="translate(0,0)"/>
<path d="M0 0 C2 1 2 1 2 1 Z " fill="#4765C3" transform="translate(217,248)"/>
<path d="M0 0 C2 1 2 1 2 1 Z " fill="#4B69C5" transform="translate(247,216)"/>
<path d="M0 0 C2 1 2 1 2 1 Z " fill="#4965C3" transform="translate(270,200)"/>
<path d="" fill="#3A3847" transform="translate(0,0)"/>
<path d="" fill="#494966" transform="translate(0,0)"/>
<path d="" fill="#4764C7" transform="translate(0,0)"/>
<path d="" fill="#4864C5" transform="translate(0,0)"/>
<path d="" fill="#4566CA" transform="translate(0,0)"/>
<path d="" fill="#4863C5" transform="translate(0,0)"/>
<path d="" fill="#4864C6" transform="translate(0,0)"/>
<path d="" fill="#4965C6" transform="translate(0,0)"/>
<path d="" fill="#4663C5" transform="translate(0,0)"/>
<path d="" fill="#4564C5" transform="translate(0,0)"/>
<path d="" fill="#4A66C3" transform="translate(0,0)"/>
<path d="" fill="#4A62C4" transform="translate(0,0)"/>
<path d="" fill="#4B67C2" transform="translate(0,0)"/>
<path d="" fill="#4967C3" transform="translate(0,0)"/>
<path d="" fill="#4663C3" transform="translate(0,0)"/>
<path d="" fill="#4865C4" transform="translate(0,0)"/>
<path d="" fill="#4765C5" transform="translate(0,0)"/>
<path d="" fill="#4866C5" transform="translate(0,0)"/>
<path d="" fill="#4863C4" transform="translate(0,0)"/>
<path d="" fill="#4864C4" transform="translate(0,0)"/>
<path d="" fill="#4965C2" transform="translate(0,0)"/>
<path d="" fill="#4A66C5" transform="translate(0,0)"/>
<path d="" fill="#4866C5" transform="translate(0,0)"/>
<path d="" fill="#4865C5" transform="translate(0,0)"/>
<path d="" fill="#4866C7" transform="translate(0,0)"/>
<path d="" fill="#4964C4" transform="translate(0,0)"/>
<path d="" fill="#4763C1" transform="translate(0,0)"/>
<path d="" fill="#4865C3" transform="translate(0,0)"/>
<path d="" fill="#4865C2" transform="translate(0,0)"/>
<path d="" fill="#4B67C1" transform="translate(0,0)"/>
<path d="" fill="#4D68C9" transform="translate(0,0)"/>
<path d="" fill="#4965C6" transform="translate(0,0)"/>
<path d="" fill="#4865C3" transform="translate(0,0)"/>
<path d="" fill="#4A62BF" transform="translate(0,0)"/>
<path d="" fill="#4764C2" transform="translate(0,0)"/>
<path d="" fill="#4865C2" transform="translate(0,0)"/>
<path d="" fill="#4A65C4" transform="translate(0,0)"/>
<path d="" fill="#4A66C4" transform="translate(0,0)"/>
<path d="" fill="#4966C4" transform="translate(0,0)"/>
<path d="" fill="#4766C8" transform="translate(0,0)"/>
<path d="" fill="#4764C3" transform="translate(0,0)"/>
<path d="" fill="#4766C6" transform="translate(0,0)"/>
<path d="" fill="#4866C2" transform="translate(0,0)"/>
<path d="" fill="#4D67C0" transform="translate(0,0)"/>
<path d="" fill="#4A67C2" transform="translate(0,0)"/>
<path d="" fill="#4964C2" transform="translate(0,0)"/>
<path d="" fill="#4A63C0" transform="translate(0,0)"/>
<path d="" fill="#4966C3" transform="translate(0,0)"/>
<path d="" fill="#4965C5" transform="translate(0,0)"/>
<path d="" fill="#4764C7" transform="translate(0,0)"/>
<path d="" fill="#4866C6" transform="translate(0,0)"/>
<path d="" fill="#4767C7" transform="translate(0,0)"/>
<path d="" fill="#4966C8" transform="translate(0,0)"/>
<path d="" fill="#4864C7" transform="translate(0,0)"/>
<path d="" fill="#4865C7" transform="translate(0,0)"/>
<path d="" fill="#4865C6" transform="translate(0,0)"/>
<path d="" fill="#4766C6" transform="translate(0,0)"/>
<path d="" fill="#4766C8" transform="translate(0,0)"/>
<path d="" fill="#4766C6" transform="translate(0,0)"/>
<path d="" fill="#4866C6" transform="translate(0,0)"/>
<path d="" fill="#4665C5" transform="translate(0,0)"/>
<path d="" fill="#4866C6" transform="translate(0,0)"/>
<path d="" fill="#4865C5" transform="translate(0,0)"/>
<path d="" fill="#4967C5" transform="translate(0,0)"/>
<path d="" fill="#4B66BF" transform="translate(0,0)"/>
<path d="" fill="#4A69C6" transform="translate(0,0)"/>
<path d="" fill="#4B67C7" transform="translate(0,0)"/>
<path d="" fill="#4966C4" transform="translate(0,0)"/>
<path d="" fill="#4D68C4" transform="translate(0,0)"/>
<path d="" fill="#4B64C0" transform="translate(0,0)"/>
<path d="" fill="#4B66C0" transform="translate(0,0)"/>
<path d="" fill="#4B67C3" transform="translate(0,0)"/>
<path d="" fill="#4A66C4" transform="translate(0,0)"/>
<path d="" fill="#4962C3" transform="translate(0,0)"/>
<path d="" fill="#4B68C2" transform="translate(0,0)"/>
<path d="" fill="#4A65C4" transform="translate(0,0)"/>
<path d="" fill="#4966C7" transform="translate(0,0)"/>
<path d="" fill="#4868C9" transform="translate(0,0)"/>
<path d="" fill="#496BC8" transform="translate(0,0)"/>
<path d="" fill="#4964C3" transform="translate(0,0)"/>
<path d="" fill="#4764C3" transform="translate(0,0)"/>
<path d="" fill="#4B67C4" transform="translate(0,0)"/>
<path d="" fill="#4763C2" transform="translate(0,0)"/>
<path d="" fill="#4968C6" transform="translate(0,0)"/>
<path d="" fill="#4B64C2" transform="translate(0,0)"/>
<path d="" fill="#4A65C3" transform="translate(0,0)"/>
<path d="" fill="#4966C2" transform="translate(0,0)"/>
<path d="" fill="#4A65BD" transform="translate(0,0)"/>
<path d="" fill="#4966C0" transform="translate(0,0)"/>
<path d="" fill="#4866C5" transform="translate(0,0)"/>
<path d="" fill="#4C68C6" transform="translate(0,0)"/>
<path d="" fill="#4A65C4" transform="translate(0,0)"/>
<path d="" fill="#4865C3" transform="translate(0,0)"/>
<path d="" fill="#4B66C4" transform="translate(0,0)"/>
<path d="" fill="#4965C7" transform="translate(0,0)"/>
<path d="" fill="#4D68C5" transform="translate(0,0)"/>
<path d="" fill="#4A65C4" transform="translate(0,0)"/>
<path d="" fill="#4864C3" transform="translate(0,0)"/>
<path d="" fill="#4D68C3" transform="translate(0,0)"/>
<path d="" fill="#4B65C3" transform="translate(0,0)"/>
<path d="" fill="#4A66C8" transform="translate(0,0)"/>
<path d="" fill="#4966C4" transform="translate(0,0)"/>
<path d="" fill="#4866C4" transform="translate(0,0)"/>
</svg>
